<?xml version="1.0" encoding="UTF-8"?> <svg xmlns="http://www.w3.org/2000/svg" width="271" height="70" viewBox="0 0 271 70" fill="none"> <rect width="70" height="70" rx="35" fill="#EC433D"></rect> <path fill-rule="evenodd" clip-rule="evenodd" d="M32.7778 11.201C28.2137 11.6367 24.0244 13.3571 20.5758 15.9966L24.3211 20.1581C26.82 18.3294 29.7989 17.1178 33.0336 16.7477L32.7778 11.201ZM37.1087 16.7321L37.3687 11.2007C49.48 12.355 58.9528 22.5561 58.9528 34.9698C58.9528 40.8164 56.8515 46.1722 53.3629 50.3232L49.3397 46.5828C51.9296 43.4202 53.4836 39.3765 53.4836 34.9698C53.4836 25.5043 46.3137 17.7135 37.1087 16.7321ZM46.5421 49.3393C43.4118 51.8261 39.4502 53.3117 35.1417 53.3117C32.6166 53.3117 30.2108 52.8015 28.0215 51.8785L25.4982 56.8495C28.4298 58.1345 31.6691 58.8476 35.075 58.8476C40.8574 58.8476 46.1598 56.7922 50.2913 53.3721L46.5421 49.3393ZM21.6092 54.6911L24.494 49.9065C20.8566 47.3089 18.2079 43.4157 17.222 38.901L11.6287 39.5123C12.8393 45.7978 16.5145 51.2058 21.6092 54.6911ZM11.1973 34.8912L16.8019 34.6892C16.8696 30.1712 18.5709 26.0492 21.3413 22.8874L17.3092 19.0155C13.5254 23.2261 11.2169 28.7892 11.1973 34.8912Z" fill="white"></path> <path d="M96.2 19V23H111.52L95 43.88V47.56H118.56V43.56H101.12L117.6 22.72V19H96.2Z" fill="black"></path> <path d="M127.747 26.32C124.667 26.32 122.227 27.36 120.467 29.48C118.627 31.56 117.747 34.12 117.747 37.2C117.747 40.64 118.707 43.32 120.627 45.28C122.427 47.16 124.867 48.12 127.947 48.12C130.707 48.12 132.987 47.32 134.827 45.76C136.267 44.48 137.227 42.84 137.707 40.92H133.147C132.587 42.08 131.987 42.92 131.307 43.44C130.427 44.08 129.307 44.4 127.907 44.4C126.267 44.4 124.987 43.88 124.107 42.88C123.227 41.88 122.707 40.4 122.547 38.48H138.027C138.027 34.76 137.187 31.84 135.547 29.76C133.747 27.44 131.147 26.32 127.747 26.32ZM127.867 30.04C131.067 30.04 132.867 31.68 133.267 35.04H122.627C122.907 33.4 123.467 32.16 124.307 31.32C125.187 30.44 126.347 30.04 127.867 30.04Z" fill="black"></path> <path d="M149.322 26.32C148.082 26.32 146.962 26.56 145.922 27.08C144.922 27.56 144.002 28.32 143.202 29.28V26.88H138.642V47.56H143.202V35.12C143.362 33.48 143.922 32.2 144.882 31.32C145.722 30.52 146.722 30.12 147.842 30.12C150.962 30.12 152.522 31.8 152.522 35.2V47.56H157.082V34.8C157.082 29.12 154.482 26.32 149.322 26.32Z" fill="black"></path> <path d="M169.044 26.32C167.044 26.32 165.164 27.2 163.444 29V26.88H158.884V47.56H163.444V35.16C163.444 33.8 163.844 32.6 164.644 31.64C165.444 30.6 166.484 30.12 167.804 30.12C170.524 30.12 171.884 31.68 171.884 34.84V47.56H176.444V34.92C176.444 33.4 176.804 32.24 177.604 31.4C178.364 30.52 179.284 30.12 180.404 30.12C182.004 30.12 183.124 30.48 183.844 31.24C184.524 31.96 184.884 33.16 184.884 34.8V47.56H189.444V34C189.444 31.72 188.724 29.88 187.364 28.44C185.924 27 184.164 26.32 182.044 26.32C180.644 26.32 179.484 26.56 178.564 27.04C177.524 27.52 176.524 28.4 175.564 29.68C174.244 27.44 172.084 26.32 169.044 26.32Z" fill="black"></path> <path d="M200.836 26.32C197.676 26.32 195.156 27.32 193.276 29.4C191.356 31.44 190.436 34.04 190.436 37.24C190.436 40.4 191.356 43 193.236 45C195.156 47.08 197.676 48.12 200.836 48.12C203.956 48.12 206.516 47.08 208.436 45C210.276 43 211.236 40.4 211.236 37.24C211.236 34.04 210.276 31.44 208.396 29.4C206.476 27.32 203.956 26.32 200.836 26.32ZM200.836 30.04C202.716 30.04 204.196 30.76 205.236 32.28C206.116 33.56 206.596 35.24 206.596 37.24C206.596 39.2 206.116 40.84 205.236 42.16C204.196 43.64 202.716 44.4 200.836 44.4C198.916 44.4 197.476 43.64 196.436 42.16C195.556 40.88 195.116 39.24 195.116 37.24C195.116 35.24 195.556 33.56 196.436 32.28C197.476 30.76 198.916 30.04 200.836 30.04Z" fill="black"></path> <path d="M222.9 26.32C221.66 26.32 220.54 26.56 219.5 27.08C218.5 27.56 217.58 28.32 216.78 29.28V26.88H212.22V47.56H216.78V35.12C216.94 33.48 217.5 32.2 218.46 31.32C219.3 30.52 220.3 30.12 221.42 30.12C224.54 30.12 226.1 31.8 226.1 35.2V47.56H230.66V34.8C230.66 29.12 228.06 26.32 222.9 26.32Z" fill="black"></path> <path d="M241.262 26.32C238.182 26.32 235.742 27.36 233.982 29.48C232.143 31.56 231.262 34.12 231.262 37.2C231.262 40.64 232.223 43.32 234.143 45.28C235.943 47.16 238.382 48.12 241.462 48.12C244.222 48.12 246.503 47.32 248.342 45.76C249.783 44.48 250.743 42.84 251.223 40.92H246.663C246.103 42.08 245.502 42.92 244.822 43.44C243.942 44.08 242.822 44.4 241.423 44.4C239.783 44.4 238.503 43.88 237.622 42.88C236.742 41.88 236.223 40.4 236.062 38.48H251.542C251.542 34.76 250.702 31.84 249.062 29.76C247.262 27.44 244.662 26.32 241.262 26.32ZM241.383 30.04C244.583 30.04 246.383 31.68 246.783 35.04H236.143C236.423 33.4 236.982 32.16 237.822 31.32C238.702 30.44 239.863 30.04 241.383 30.04Z" fill="black"></path> <path d="M249.958 26.88L258.158 47.08L254.518 55.48H259.398L270.598 26.88H265.638L260.398 41.6L254.918 26.88H249.958Z" fill="black"></path> </svg> 